

<svg xmlns:mydata="http://www.w3.org/2000/svg" mydata:contrastcolor="11111f" mydata:template="Contrast" mydata:presentation="2.5" mydata:layouttype="undefined" mydata:specialfontid="undefined" mydata:id1="285" mydata:id2="590" mydata:companyname="Amaranthus" mydata:companytagline="" version="1.1" xmlns="http://www.w3.org/2000/svg" xmlns:xlink="http://www.w3.org/1999/xlink" viewBox="0 0 550 470"><g fill="#ec86d0" fill-rule="none" stroke="none" stroke-width="1" stroke-linecap="butt" stroke-linejoin="miter" stroke-miterlimit="10" stroke-dasharray="" stroke-dashoffset="0" font-family="none" font-weight="none" font-size="none" text-anchor="none" style="mix-blend-mode: normal"><g data-paper-data="{&quot;isGlobalGroup&quot;:true,&quot;bounds&quot;:{&quot;x&quot;:65,&quot;y&quot;:198.72537223629777,&quot;width&quot;:420,&quot;height&quot;:72.54925552740448}}"><g data-paper-data="{&quot;isPrimaryText&quot;:true}"><path d="M250.2096,201.01176c0,0.18658 0,0.18658 0,0zM253.10163,200.82518c-0.93291,-2.33228 -4.10482,-2.1457 -6.15723,-2.05241c-2.42557,0.18658 -4.75786,0.83962 -7.09014,1.67924c-4.75786,1.77254 -9.23584,4.2914 -13.71382,6.81027c-4.94444,2.89203 -9.79559,6.06394 -14.55345,9.51571c-6.53039,4.75786 -12.78091,9.98217 -18.84485,15.39307c-0.46646,0.09329 -0.83962,0.09329 -1.30608,0.09329c-3.07861,0.18658 -6.15723,0.46646 -9.23584,0.74633c-4.38469,0.37317 -8.76938,0.74633 -13.15408,1.67924c-0.93291,0.18658 -1.95912,0.37317 -2.89203,0.65304c-0.37317,0.09329 -1.21279,0.18658 -1.39937,0.55975c-0.55975,0.83962 0.46646,1.58595 1.21279,1.77254c0.55975,0.18658 1.39937,0.18658 1.67924,-0.27987c2.42557,-0.55975 4.75786,-1.0262 7.09014,-1.39937c2.05241,-0.27987 4.19811,-0.46646 6.25052,-0.65304l9.23584,-0.83962c-1.67924,1.49266 -3.2652,3.07861 -4.85115,4.57127c-7.64989,7.46331 -15.0199,15.39307 -21.73688,23.696c-1.0262,1.1195 -1.86583,2.33228 -2.89203,3.54507l-1.49266,1.95912c-0.27987,0.37317 -0.55975,0.74633 -0.93291,1.1195c0,0.18658 -0.09329,0.27987 -0.27987,0.46646c-0.18658,0.09329 -0.37317,0.18658 -0.46646,0.37317c-0.18658,0.55975 0.74633,0.93291 1.1195,1.0262c0.46646,0.09329 0.93291,-0.27987 1.21279,-0.65304c0.55975,-0.55975 1.1195,-1.1195 1.58595,-1.77254c0.93291,-0.93291 1.77254,-1.95912 2.70545,-3.07861l4.66457,-5.4109c3.54507,-4.01153 7.18343,-8.02305 10.91508,-11.848c4.75786,-4.85115 9.60901,-9.60901 14.64674,-14.18028c2.98532,-0.09329 5.87735,-0.18658 8.76938,-0.18658c5.50419,-0.09329 10.82179,-0.27987 16.23269,0c0.09329,0.09329 0.18658,0.18658 0.18658,0.18658c1.58595,0.55975 3.2652,0.46646 4.85115,0.18658c0.46646,-0.09329 0.83962,-0.65304 0.55975,-1.1195c-0.27987,-0.65304 -0.93291,-0.93291 -1.58595,-1.0262c-5.78406,-0.65304 -11.66142,-0.65304 -17.53877,-0.55975c-2.98532,0.09329 -5.97064,0.09329 -8.95597,0.18658c2.70545,-2.23899 5.31761,-4.47798 8.02305,-6.71698c8.86268,-7.09014 18.2851,-13.62053 28.45385,-18.93814c2.89203,-1.58595 5.78406,-2.98532 8.86268,-4.01153c0.83962,-0.27987 1.58595,-0.55975 2.42557,-0.74633l1.1195,-0.27987c0.18658,0 0.37317,-0.09329 0.55975,-0.09329c0.09329,0 0.18658,-0.09329 0.27987,-0.09329c0.37317,-0.09329 -0.27987,0.09329 0.18658,0c0.74633,-0.09329 1.49266,-0.18658 2.23899,-0.18658h0.18658c0.09329,0 0.18658,0 0.18658,0h0.46646h0.18658c0,0.09329 0,0.09329 0.09329,0.09329h-0.09329c0.09329,0.18658 0.09329,0.27987 0.09329,0.46646c0,0.09329 0,0.18658 0,0.27987c0,0.09329 0,0.27987 -0.09329,0.46646c0,0.37317 -0.18658,0.74633 -0.27987,1.1195l-0.55975,1.1195c-0.18658,0.46646 -0.37317,0.65304 -0.65304,1.1195c-0.46646,0.93291 -1.1195,1.77254 -1.67924,2.61216l-3.45178,4.94444c-1.67924,2.42557 -3.1719,4.94444 -4.75786,7.37001l-10.16875,15.29978c-1.77254,2.79874 -3.63836,5.59748 -5.50419,8.39622l-1.67924,2.70545l-1.39937,2.33228l-0.93291,1.58595c-0.46646,0.65304 -0.74633,1.39937 -1.1195,2.05241c-0.37317,0.65304 0.09329,1.21279 0.65304,1.49266c0.46646,0.18658 1.67924,0.46646 1.95912,-0.09329c0.37317,-0.65304 0.83962,-1.1195 1.21279,-1.77254l0.83962,-1.49266l1.39937,-2.23899l1.67924,-2.70545l4.85115,-7.46331c3.2652,-5.13102 6.71698,-10.16875 10.07546,-15.29978c1.67924,-2.51887 3.35849,-5.03773 4.94444,-7.64989c1.1195,-1.77254 2.33228,-3.45178 3.54507,-5.13102c1.21279,-1.67924 2.42557,-3.35849 3.35849,-5.22431c0.65304,-1.39937 1.21279,-2.98532 0.65304,-4.47798zM159.43714,270.98025c0.09329,0 0.09329,0 0.09329,0c0,0 -0.09329,0.09329 -0.09329,0z" data-paper-data="{&quot;glyphName&quot;:&quot;A&quot;,&quot;glyphIndex&quot;:0,&quot;firstGlyphOfWord&quot;:true,&quot;word&quot;:1}" fill-rule="nonzero"></path><path d="M275.58484,230.6784l-2.33228,1.58595l-3.63836,2.51887c-2.89203,2.05241 -5.87735,3.91824 -8.95597,5.69077c-1.39937,0.74633 -2.61216,1.39937 -4.01153,2.05241c-0.83962,0.37317 -1.67924,0.74633 -2.51887,0.74633v-0.27987c-0.09329,0.27987 0,-0.09329 0,-0.18658c0,-0.09329 0.09329,-0.27987 0.09329,-0.37317l0.27987,-0.93291c0.18658,-0.65304 0.55975,-1.30608 0.83962,-1.95912c0.83962,-1.77254 1.77254,-3.54507 2.70545,-5.31761c0.55975,-1.30608 1.39937,-2.79874 1.39937,-4.2914c-0.09329,-0.65304 -1.0262,-1.0262 -1.58595,-1.1195c-3.1719,-0.37317 -5.69077,2.61216 -7.5566,4.75786c-0.93291,1.0262 -1.95912,2.1457 -2.79874,3.2652v0c0.83962,-1.67924 1.77254,-3.45178 1.49266,-5.4109c-0.09329,-1.0262 -1.67924,-1.39937 -2.42557,-1.0262c-1.39937,0.74633 -2.70545,1.67924 -3.91824,2.70545c-0.65304,0.46646 -1.30608,1.0262 -1.86583,1.58595c0.37317,-0.65304 2.33228,-4.10482 2.98532,-4.57127c0.27987,0 0.55975,-0.18658 0.55975,-0.55975c0,-0.83962 -0.46646,-1.49266 -1.21279,-1.67924c-0.27987,-0.09329 -1.0262,-0.18658 -1.21279,0.18658c-3.63836,5.59748 -7.37001,11.28825 -9.88888,17.44548c-0.37317,1.1195 2.1457,1.95912 2.70545,1.1195c1.77254,-2.98532 3.91824,-5.69077 6.25052,-8.20964c1.49266,-1.58595 3.07861,-3.1719 4.75786,-4.47798c-0.27987,0.74633 -0.74633,1.58595 -1.1195,2.33228c-0.93291,1.77254 -1.86583,3.63836 -1.67924,5.59748c0.09329,0.93291 1.77254,1.58595 2.51887,1.0262c2.70545,-2.1457 4.75786,-4.94444 6.99685,-7.5566l1.67924,-1.95912l0.83962,-0.74633c0.09329,-0.09329 0.18658,-0.27987 0.37317,-0.37317c0.09329,-0.09329 0.18658,-0.18658 0.18658,-0.18658c0.27987,-0.27987 -0.09329,0.09329 0.18658,-0.09329c0.09329,-0.09329 0.09329,-0.18658 -0.18658,0.65304c-0.65304,1.49266 -1.39937,2.89203 -2.1457,4.2914c-0.65304,1.39937 -1.39937,2.70545 -1.77254,4.10482c-0.37317,1.0262 -0.55975,2.33228 0.18658,3.1719c0.93291,1.21279 2.33228,1.21279 3.63836,0.93291c1.30608,-0.18658 2.79874,-0.74633 3.91824,-1.30608c3.1719,-1.39937 6.06394,-3.2652 8.95597,-5.03773l5.78406,-3.91824c0.65304,-0.55975 1.39937,-1.0262 2.1457,-1.58595l0.74633,-0.55975c0.37317,-0.37317 0.55975,-0.46646 0.65304,-0.55975c0.74633,-0.93291 -0.83962,-2.51887 -2.05241,-1.49266z" data-paper-data="{&quot;glyphName&quot;:&quot;m&quot;,&quot;glyphIndex&quot;:1,&quot;word&quot;:1}" fill-rule="nonzero"></path><path d="M303.9454,231.33144c-0.46646,-0.27987 -1.21279,-0.37317 -1.86583,0c-3.91824,3.45178 -7.64989,6.90356 -12.22116,9.32913c-1.95912,1.0262 -3.54507,1.95912 -5.4109,2.51887c-2.23899,0.65304 -3.63836,-0.83962 -2.98532,-2.51887l0.27987,-0.93291c0.27987,-1.0262 0.83962,-2.23899 1.39937,-3.35849c0.18658,-0.46646 0.55975,-0.93291 0.83962,-1.39937c1.77254,-2.70545 2.1457,-2.79874 2.89203,-3.73165c0.09329,-0.18658 0.27987,-0.27987 0.37317,-0.46646c0.18658,-0.18658 0.46646,-0.55975 0.46646,-0.74633v-0.09329c0,-1.0262 -2.1457,-1.67924 -2.79874,-0.93291c-0.55975,0.83962 -1.39937,1.58595 -2.05241,2.42557l-0.09329,0.09329l-2.89203,2.61216l-5.4109,5.78406c-0.83962,0.93291 -1.77254,1.86583 -2.79874,2.70545c-0.74633,0.74633 -1.49266,1.21279 -2.51887,1.77254c-0.09329,0.09329 -0.18658,0.09329 -0.27987,0.09329c-0.27987,-0.74633 -0.09329,-1.58595 0.18658,-2.33228c0.55975,-1.77254 1.77254,-3.1719 2.89203,-4.47798c1.1195,-1.39937 2.51887,-2.61216 3.63836,-3.54507c1.30608,-0.93291 2.70545,-1.77254 4.19811,-2.42557c-0.18658,0.09329 0.27987,-0.09329 0.37317,-0.09329c0.09329,-0.09329 0.27987,0 0.37317,-0.09329c0,0 0,0 0.09329,0c0.18658,0.09329 0.27987,0.18658 0.46646,0.18658c0.55975,0.27987 1.30608,0.27987 1.58595,-0.37317c0.46646,-1.0262 -0.74633,-1.67924 -1.58595,-1.95912c-0.74633,-0.09329 -1.67924,0.09329 -2.33228,0.27987c-1.95912,0.65304 -3.54507,1.39937 -4.94444,2.42557c-1.95912,1.39937 -3.63836,3.07861 -5.13102,4.94444c-1.30608,1.77254 -2.70545,3.63836 -2.79874,5.97064c0,1.0262 0.37317,2.1457 1.21279,2.79874c1.21279,0.83962 2.51887,0.83962 3.63836,0.37317c1.0262,-0.37317 1.86583,-0.83962 2.61216,-1.49266c0.93291,-0.65304 1.77254,-1.77254 2.70545,-2.61216c1.0262,-0.93291 1.95912,-1.77254 2.79874,-2.79874c-0.37317,1.30608 -0.55975,2.79874 0.18658,3.91824c1.21279,2.05241 4.10482,2.33228 6.34381,2.05241c1.39937,-0.27987 2.70545,-0.83962 6.4371,-2.89203c1.21279,-0.65304 1.95912,-1.21279 3.54507,-2.23899c3.45178,-2.23899 6.25052,-4.75786 9.32913,-7.46331c0.46646,-0.37317 -0.27987,-1.1195 -0.74633,-1.30608z" data-paper-data="{&quot;glyphName&quot;:&quot;a&quot;,&quot;glyphIndex&quot;:2,&quot;word&quot;:1}" fill-rule="nonzero"></path><path d="M303.57223,230.21195c-0.93291,0.74633 -1.86583,2.61216 -2.51887,4.19811l-1.95912,3.54507l-0.55975,1.1195c-0.83962,1.58595 -1.0262,1.77254 -2.79874,4.47798l-1.1195,1.67924c-0.18658,0.37317 0.37317,1.21279 0.83962,1.39937c0.37317,0.09329 1.49266,0.37317 1.67924,0c0.09329,-0.09329 0.18658,-0.27987 0.27987,-0.46646c0.65304,-0.93291 0.83962,-1.21279 1.30608,-2.05241l2.1457,-2.42557l2.1457,-1.95912l2.33228,-2.23899l1.67924,-1.30608l2.23899,-1.30608l1.0262,-0.65304l1.77254,-1.0262l0.93291,-0.46646c0.83962,-0.46646 1.77254,-0.93291 2.79874,-1.39937l0.83962,-0.27987c0.18658,-0.09329 0.18658,-0.09329 0.27987,-0.09329c0.93291,-0.27987 1.30608,-0.27987 1.49266,-0.27987c0.74633,0.27987 2.1457,0.55975 2.51887,-0.18658c0.27987,-1.21279 -0.83962,-1.77254 -1.67924,-1.95912c-0.18658,-0.09329 -0.83962,-0.09329 -1.39937,-0.09329c-0.65304,0.09329 -0.74633,0.09329 -0.74633,0.09329c-1.30608,0.18658 -2.70545,0.65304 -4.01153,1.21279l-0.83962,0.37317l-0.55975,0.27987c-2.98532,1.58595 -5.69077,3.45178 -8.11634,5.13102c0.83962,-1.30608 2.79874,-4.75786 2.05241,-4.94444c-0.18658,-0.09329 -0.27987,-0.18658 -0.27987,-0.18658c-0.55975,-0.18658 -1.30608,-0.37317 -1.77254,-0.18658z" data-paper-data="{&quot;glyphName&quot;:&quot;r&quot;,&quot;glyphIndex&quot;:3,&quot;word&quot;:1}" fill-rule="nonzero"></path><path d="M349.47156,231.33144c-0.46646,-0.27987 -1.21279,-0.37317 -1.86583,0c-3.91824,3.45178 -7.64989,6.90356 -12.22116,9.32913c-1.95912,1.0262 -3.54507,1.95912 -5.4109,2.51887c-2.23899,0.65304 -3.63836,-0.83962 -2.98532,-2.51887l0.27987,-0.93291c0.27987,-1.0262 0.83962,-2.23899 1.39937,-3.35849c0.18658,-0.46646 0.55975,-0.93291 0.83962,-1.39937c1.77254,-2.70545 2.1457,-2.79874 2.89203,-3.73165c0.09329,-0.18658 0.27987,-0.27987 0.37317,-0.46646c0.18658,-0.18658 0.46646,-0.55975 0.46646,-0.74633v-0.09329c0,-1.0262 -2.1457,-1.67924 -2.79874,-0.93291c-0.55975,0.83962 -1.39937,1.58595 -2.05241,2.42557l-0.09329,0.09329l-2.89203,2.61216l-5.4109,5.78406c-0.83962,0.93291 -1.77254,1.86583 -2.79874,2.70545c-0.74633,0.74633 -1.49266,1.21279 -2.51887,1.77254c-0.09329,0.09329 -0.18658,0.09329 -0.27987,0.09329c-0.27987,-0.74633 -0.09329,-1.58595 0.18658,-2.33228c0.55975,-1.77254 1.77254,-3.1719 2.89203,-4.47798c1.1195,-1.39937 2.51887,-2.61216 3.63836,-3.54507c1.30608,-0.93291 2.70545,-1.77254 4.19811,-2.42557c-0.18658,0.09329 0.27987,-0.09329 0.37317,-0.09329c0.09329,-0.09329 0.27987,0 0.37317,-0.09329c0,0 0,0 0.09329,0c0.18658,0.09329 0.27987,0.18658 0.46646,0.18658c0.55975,0.27987 1.30608,0.27987 1.58595,-0.37317c0.46646,-1.0262 -0.74633,-1.67924 -1.58595,-1.95912c-0.74633,-0.09329 -1.67924,0.09329 -2.33228,0.27987c-1.95912,0.65304 -3.54507,1.39937 -4.94444,2.42557c-1.95912,1.39937 -3.63836,3.07861 -5.13102,4.94444c-1.30608,1.77254 -2.70545,3.63836 -2.79874,5.97064c0,1.0262 0.37317,2.1457 1.21279,2.79874c1.21279,0.83962 2.51887,0.83962 3.63836,0.37317c1.0262,-0.37317 1.86583,-0.83962 2.61216,-1.49266c0.93291,-0.65304 1.77254,-1.77254 2.70545,-2.61216c1.0262,-0.93291 1.95912,-1.77254 2.79874,-2.79874c-0.37317,1.30608 -0.55975,2.79874 0.18658,3.91824c1.21279,2.05241 4.10482,2.33228 6.34381,2.05241c1.39937,-0.27987 2.70545,-0.83962 6.4371,-2.89203c1.21279,-0.65304 1.95912,-1.21279 3.54507,-2.23899c3.45178,-2.23899 6.25052,-4.75786 9.32913,-7.46331c0.46646,-0.37317 -0.27987,-1.1195 -0.74633,-1.30608z" data-paper-data="{&quot;glyphName&quot;:&quot;a&quot;,&quot;glyphIndex&quot;:4,&quot;word&quot;:1}" fill-rule="nonzero"></path><path d="M377.36567,230.49182c-0.55975,-0.27987 -1.21279,-0.37317 -1.67924,0.09329c0.18658,-0.27987 0,0 -0.18658,0.09329l-0.46646,0.27987c-0.46646,0.27987 -0.83962,0.55975 -1.21279,0.93291l-3.45178,2.51887c-2.79874,2.05241 -5.59748,3.82494 -8.48951,5.69077l-4.10482,2.42557l-1.77254,0.93291c-0.46646,0.18658 -0.83962,0.37317 -1.30608,0.46646c-0.18658,-0.46646 -0.18658,-1.0262 -0.09329,-1.39937c0.09329,-0.93291 0.37317,-1.58595 0.74633,-2.42557c0.65304,-1.67924 1.67924,-3.1719 2.51887,-4.75786c0.74633,-1.49266 1.49266,-3.07861 1.39937,-4.75786c-0.18658,-0.83962 -1.49266,-1.30608 -2.1457,-1.0262c-2.89203,0.83962 -5.4109,2.79874 -7.46331,4.94444l0.74633,-1.67924l0.83962,-1.77254l0.55975,-0.74633c0.18658,-0.09329 0.18658,-0.18658 0.27987,-0.18658c0.55975,0 1.0262,-0.37317 0.74633,-1.0262c-0.27987,-0.55975 -1.1195,-0.83962 -1.67924,-0.83962c-1.49266,0 -2.33228,1.67924 -2.89203,2.79874c-0.93291,1.39937 -1.39937,2.70545 -2.23899,3.91824c-2.33228,3.35849 -4.47798,6.81027 -6.15723,10.7285c-0.18658,0.46646 0.37317,0.93291 0.74633,1.0262c0.55975,0.27987 1.39937,0.46646 1.77254,-0.09329c0.09329,-0.09329 0.18658,-0.18658 0.27987,-0.18658c2.51887,-2.79874 4.66457,-5.87735 7.09014,-8.5828c1.86583,-1.95912 4.01153,-4.10482 6.4371,-5.50419c-0.27987,0.93291 -0.74633,1.67924 -1.1195,2.42557c-1.0262,1.67924 -2.05241,3.2652 -2.70545,4.94444c-0.65304,1.49266 -1.1195,3.1719 -0.27987,4.66457c0.74633,1.21279 1.86583,1.77254 3.35849,1.49266c1.1195,-0.18658 2.33228,-0.65304 3.35849,-1.21279c1.30608,-0.55975 2.51887,-1.30608 3.82494,-2.05241c3.07861,-1.86583 5.97064,-3.73165 8.76938,-5.69077c2.33228,-1.67924 4.57127,-3.2652 6.62368,-5.13102c0.46646,-0.46646 -0.18658,-1.21279 -0.65304,-1.30608z" data-paper-data="{&quot;glyphName&quot;:&quot;n&quot;,&quot;glyphIndex&quot;:5,&quot;word&quot;:1}" fill-rule="nonzero"></path><path d="M403.30065,230.7717c-0.46646,-0.37317 -1.58595,-0.74633 -2.1457,-0.27987c-6.53039,5.13102 -13.90041,9.98217 -21.457,13.62053c-1.49266,0.74633 -2.79874,1.21279 -4.10482,1.58595c-1.0262,0.27987 -2.61216,0.93291 -2.61216,-0.74633c0,0 0,0 0,-0.09329c0.09329,-1.0262 0.37317,-1.86583 0.65304,-2.70545c1.39937,-4.10482 3.45178,-7.92976 5.4109,-11.75471c1.67924,-3.07861 3.54507,-6.25052 5.22431,-9.32913h8.02305c0.18658,0 0.37317,0 0.55975,0c0,0.27987 0.09329,0.46646 0.27987,0.65304c0.46646,0.55975 1.30608,0.74633 2.05241,0.65304c1.67924,-0.27987 3.1719,-0.83962 4.75786,-1.1195c0.55975,-0.09329 0.83962,-0.65304 0.65304,-1.1195c-0.27987,-0.55975 -1.0262,-0.93291 -1.58595,-1.0262c-2.42557,-0.27987 -4.94444,-0.18658 -7.37001,-0.18658c-2.05241,0 -4.10482,-0.09329 -6.06394,-0.09329c0,0 0.09329,-0.09329 0.09329,-0.18658c0.55975,-0.83962 1.0262,-1.67924 1.49266,-2.61216l0.55975,-1.1195c0.27987,-0.46646 0.74633,-1.0262 1.0262,-1.58595c1.39937,-2.1457 2.70545,-4.47798 4.38469,-6.53039c0.18658,-0.37317 0.18658,-0.74633 -0.09329,-1.0262c-0.27987,-0.37317 -0.83962,-0.55975 -1.39937,-0.55975c-0.55975,0.09329 -0.83962,0.18658 -1.1195,0.55975l-0.65304,0.74633l-1.30608,1.67924l-2.23899,3.35849c-0.65304,1.0262 -1.30608,2.05241 -1.86583,3.07861l-0.55975,1.0262c-0.27987,0.46646 -0.55975,0.93291 -0.74633,1.39937c-0.37317,0.65304 -0.74633,1.21279 -1.0262,1.77254c-1.21279,0.09329 -2.42557,0.09329 -3.63836,0.09329h-15.95282c-19.3113,0.18658 -20.89726,0.18658 -22.38992,0.18658c-3.07861,0 -6.06394,0 -9.04926,0.09329h-0.27987c0,0 0,0 -0.09329,0c0.09329,0 0.09329,0 0.18658,0c-0.27987,0 -0.65304,0 -0.83962,0.18658c-0.18658,0.18658 -0.46646,0.46646 -0.37317,0.74633c0.37317,1.39937 1.95912,1.30608 3.07861,1.21279h0.37317h2.89203c3.91824,0 7.74318,-0.09329 11.56812,-0.09329c5.13102,0 10.26205,-0.09329 15.39307,-0.09329c5.31761,-0.09329 10.63521,-0.09329 16.04611,-0.09329h1.77254c-1.58595,2.61216 -3.07861,5.22431 -4.47798,7.92976c-2.1457,3.82494 -4.19811,7.64989 -5.59748,11.75471c-0.46646,1.30608 -1.0262,2.79874 -0.93291,4.19811c0.09329,1.21279 0.83962,2.1457 1.86583,2.70545c2.42557,1.30608 5.59748,0.27987 8.02305,-0.65304c3.63836,-1.49266 6.99685,-3.45178 10.35534,-5.50419c2.42557,-1.49266 4.66457,-2.89203 6.90356,-4.47798c2.1457,-1.58595 4.75786,-3.1719 6.71698,-4.94444c0.46646,-0.37317 0,-1.0262 -0.37317,-1.30608z" data-paper-data="{&quot;glyphName&quot;:&quot;t&quot;,&quot;glyphIndex&quot;:6,&quot;word&quot;:1}" fill-rule="nonzero"></path><path d="M430.44843,230.39853c-1.39937,1.1195 -2.98532,2.1457 -4.47798,3.1719l-5.50419,4.01153c-1.49266,1.0262 -2.98532,1.95912 -4.47798,2.89203l-2.61216,1.67924l-1.39937,0.65304l-0.55975,0.37317c-0.18658,0 -0.27987,0.09329 -0.37317,0.09329c0,0 -0.09329,0 -0.18658,0.09329c-0.46646,0.18658 -1.21279,0.65304 -1.21279,0.09329v-0.37317l0.27987,-0.74633c0.83962,-2.61216 2.33228,-5.03773 3.63836,-7.5566c0.46646,-0.93291 0.93291,-1.95912 1.21279,-2.98532c0.27987,-0.74633 0.46646,-1.67924 0.18658,-2.42557c-0.27987,-0.83962 -1.49266,-1.0262 -2.1457,-0.83962c-1.49266,0.27987 -2.89203,1.1195 -4.10482,2.05241c-1.49266,1.21279 -2.89203,2.51887 -4.19811,3.91824c-1.67924,1.86583 -3.35849,3.82494 -5.03773,5.69077c1.39937,-2.89203 2.89203,-5.69077 4.2914,-8.48951c2.61216,-5.03773 5.13102,-10.07546 8.20964,-14.92661c0.93291,-1.49266 1.95912,-2.98532 2.98532,-4.38469l2.23899,-2.98532c0.65304,-0.93291 1.30608,-1.86583 2.05241,-2.70545l0.55975,-0.55975l0.46646,-0.37317l0.27987,-0.18658c0.09329,0 0.09329,0 0.09329,0c0.18658,0.09329 0.46646,0.09329 0.65304,0l0.65304,-0.46646c0.09329,-0.09329 0.09329,-0.37317 0,-0.55975c0,0 0,-0.09329 -0.09329,-0.09329c-0.18658,-0.55975 -0.83962,-0.83962 -1.39937,-0.93291c-1.95912,-0.18658 -3.35849,1.30608 -4.47798,2.70545l-1.49266,2.05241c-0.55975,0.83962 -1.1195,1.49266 -1.67924,2.23899c-3.45178,4.66457 -6.25052,9.60901 -8.95597,14.74003l-5.31761,10.35534c-1.77254,3.54507 -3.54507,7.09014 -4.47798,10.91508c-0.09329,0.55975 0.37317,0.93291 0.74633,1.1195c0.55975,0.37317 1.39937,0.46646 1.86583,-0.09329c2.61216,-2.42557 4.75786,-5.4109 7.09014,-8.11634c1.30608,-1.58595 2.70545,-3.07861 4.19811,-4.57127c1.30608,-1.30608 2.42557,-2.42557 3.91824,-3.35849c0,0 0,0.09329 -0.09329,0.18658c-0.46646,1.21279 -1.1195,2.42557 -1.77254,3.63836l-1.95912,3.91824c-0.46646,1.0262 -1.0262,2.1457 -1.21279,3.2652c-0.18658,1.21279 0.09329,2.23899 1.21279,2.89203c1.30608,0.74633 3.07861,0.37317 4.38469,-0.18658c1.86583,-0.74633 3.73165,-1.86583 5.4109,-2.98532l4.47798,-2.89203c1.86583,-1.30608 3.73165,-2.70545 5.59748,-4.10482c0.83962,-0.55975 1.67924,-1.21279 2.42557,-1.86583c0.37317,-0.27987 0.74633,-0.65304 1.21279,-0.93291c0.09329,-0.18658 0.27987,-0.27987 0.37317,-0.37317c0.09329,-0.09329 0.18658,-0.09329 0.18658,-0.18658c0.09329,0 0.27987,-0.18658 0.18658,-0.09329c1.0262,-0.83962 -1.1195,-2.05241 -1.86583,-1.39937z" data-paper-data="{&quot;glyphName&quot;:&quot;h&quot;,&quot;glyphIndex&quot;:7,&quot;word&quot;:1}" fill-rule="nonzero"></path><path d="M425.78386,244.57881c0,0 0,0 -0.09329,0c0.09329,0 0.09329,0 0.09329,0zM462.72723,230.58511c-0.65304,-0.37317 -1.49266,-0.46646 -2.05241,0.09329c-3.2652,3.1719 -6.62368,5.87735 -10.35534,8.48951c-1.67924,1.21279 -3.45178,2.23899 -5.31761,3.1719c-0.93291,0.46646 -1.67924,0.83962 -2.79874,1.1195l-0.65304,0.18658c-1.21279,0.37317 -1.86583,-0.18658 -1.86583,-1.39937v-0.37317v-0.09329c0.09329,-0.46646 0.18658,-0.93291 0.27987,-1.39937c0.18658,-0.74633 0.55975,-1.58595 0.83962,-2.33228c0.65304,-1.39937 1.39937,-2.70545 2.42557,-4.01153c0.37317,-0.55975 0.74633,-1.1195 1.21279,-1.58595l0.55975,-0.55975c-0.27987,0.37317 0.27987,-0.18658 0.27987,-0.18658c0.09329,-0.09329 0.18658,-0.27987 0.18658,-0.37317c0.18658,-0.37317 0,0 0,-0.09329c0.74633,-1.21279 -1.49266,-2.05241 -2.42557,-1.49266c-0.74633,0.46646 -1.49266,1.1195 -2.1457,1.77254c-1.0262,0.83962 -1.95912,1.86583 -2.89203,2.79874c-2.33228,2.23899 -4.66457,4.57127 -7.18343,6.71698l-0.46646,0.37317c0,0.09329 -0.09329,0.09329 -0.18658,0.18658c0,0 -0.27987,0.18658 -0.09329,0.09329l-0.83962,0.74633l-1.67924,1.1195l-1.58595,0.93291c0,0 -0.09329,0.09329 -0.18658,0.09329c0.27987,-0.09329 -0.09329,0 -0.18658,0.09329c-0.37317,0.09329 -0.46646,0 -0.46646,-0.09329c-0.09329,-0.09329 -0.09329,-0.18658 -0.09329,-0.37317c0,-0.18658 0.09329,-0.46646 0.09329,-0.65304c0.18658,-0.65304 0.37317,-1.21279 0.65304,-1.86583l0.83962,-1.49266c0.27987,-0.46646 0.74633,-1.49266 0.83962,-1.58595l2.23899,-3.2652c0.65304,-0.93291 1.39937,-1.86583 2.05241,-2.89203l0.83962,-1.1195l0.27987,-0.46646l0.18658,-0.18658c0.09329,0 0.09329,0 0.09329,-0.09329c0.27987,-0.18658 0.46646,-0.46646 0.27987,-0.83962c-0.18658,-0.46646 -0.74633,-0.65304 -1.30608,-0.74633c-0.37317,-0.09329 -1.30608,-0.18658 -1.67924,0.46646c-0.09329,0.09329 -0.18658,0.18658 -0.18658,0.27987l-0.55975,0.65304c-0.37317,0.55975 -0.74633,1.1195 -1.21279,1.67924c-1.0262,1.39937 -1.95912,2.79874 -2.89203,4.19811c-1.0262,1.49266 -1.86583,2.98532 -2.61216,4.57127c-0.46646,1.0262 -1.0262,2.42557 -0.74633,3.63836c0.27987,1.30608 1.58595,2.1457 2.89203,2.33228c1.21279,0.18658 2.33228,-0.27987 3.35849,-0.83962c1.1195,-0.55975 2.23899,-1.39937 3.2652,-2.1457c1.30608,-1.0262 2.51887,-2.1457 3.73165,-3.2652c0.65304,-0.55975 1.21279,-1.0262 1.77254,-1.58595c-0.37317,1.21279 -0.65304,2.42557 -0.46646,3.63836c0.37317,1.86583 1.95912,3.07861 3.82494,3.1719c2.1457,0.27987 4.2914,-0.65304 6.15723,-1.49266c1.86583,-0.83962 3.63836,-1.95912 5.4109,-3.1719c3.73165,-2.51887 7.18343,-5.31761 10.44863,-8.39622l0.74633,-0.74633c0.55975,-0.46646 -0.27987,-1.21279 -0.65304,-1.39937z" data-paper-data="{&quot;glyphName&quot;:&quot;u&quot;,&quot;glyphIndex&quot;:8,&quot;word&quot;:1}" fill-rule="nonzero"></path><path d="M484.65069,231.33144c-0.55975,-0.37317 -1.30608,-0.55975 -1.86583,-0.18658c-1.21279,0.83962 -2.42557,2.1457 -3.54507,2.98532l-3.07861,2.42557c-1.86583,1.39937 -3.45178,2.61216 -5.4109,3.82494c-1.67924,1.0262 -2.23899,1.39937 -4.19811,2.42557c-0.37317,0.18658 -0.74633,0.37317 -2.42557,0.93291c-1.77254,0.55975 -3.54507,1.21279 -5.22431,1.21279c0.09329,-0.27987 0.09329,-0.46646 0.18658,-0.65304c0.46646,-1.77254 0.93291,-3.63836 1.58595,-5.31761l0.93291,-2.61216l0.55975,-1.21279l0.27987,-0.55975l0.27987,-0.55975l1.39937,-2.05241l0.83962,-0.93291c0.46646,-0.46646 0.74633,-0.65304 0.83962,-0.74633l1.1195,-0.74633l0.65304,-0.27987c-0.27987,0.18658 0,0 0.09329,0l0.37317,-0.18658c0,0 0,0 -0.09329,0c0.55975,-0.18658 0.93291,-0.55975 0.65304,-1.1195c-0.37317,-0.74633 -1.49266,-1.1195 -2.33228,-0.93291c-3.54507,1.21279 -5.87735,4.2914 -7.37001,7.5566c-1.49266,3.35849 -2.23899,6.71698 -3.1719,10.26205l-0.55975,-0.09329l-0.37317,-0.18658c0,0 -0.18658,-0.09329 -0.27987,-0.09329c-0.27987,-0.09329 -0.55975,-0.18658 -0.83962,-0.37317l-0.37317,-0.18658l-1.0262,-0.74633l-0.37317,-0.27987c0,0 -0.18658,-0.27987 -0.27987,-0.27987c-0.18658,-0.27987 -0.37317,-0.46646 -0.55975,-0.65304c-0.18658,-0.18658 -0.27987,-0.37317 -0.46646,-0.55975c-0.27987,-0.74633 -1.49266,-0.93291 -2.23899,-0.74633c-0.27987,0.09329 -0.74633,0.37317 -0.55975,0.74633c0,0.09329 0,0.18658 0.09329,0.27987c0.09329,0.27987 0.27987,0.65304 0.46646,0.83962c0.18658,0.27987 0.55975,0.65304 0.83962,0.93291c0.65304,0.74633 1.30608,1.39937 1.86583,2.1457l2.05241,1.86583c0.46646,0.55975 1.0262,1.1195 1.67924,1.49266c0.55975,0.27987 1.30608,0.55975 1.95912,0.27987c0.27987,0 0.55975,-0.09329 0.65304,-0.27987c0.27987,-0.27987 0.55975,-0.65304 0.65304,-1.0262c0.09329,-0.27987 0.18658,-0.55975 0.27987,-0.83962c0.74633,0 1.58595,-0.09329 2.33228,-0.18658c3.73165,-0.55975 5.87735,-1.58595 9.23584,-3.35849c2.51887,-1.39937 4.85115,-2.89203 7.09014,-4.47798c1.58595,-1.1195 2.23899,-1.77254 3.73165,-2.89203c0.74633,-0.55975 1.39937,-1.21279 2.05241,-1.77254c0.83962,-0.74633 1.49266,-1.21279 2.05241,-1.95912c0.27987,-0.46646 0.18658,-0.83962 -0.18658,-1.1195z" data-paper-data="{&quot;glyphName&quot;:&quot;s&quot;,&quot;glyphIndex&quot;:9,&quot;lastGlyphOfWord&quot;:true,&quot;word&quot;:1}" fill-rule="nonzero"></path><g data-paper-data="{&quot;fillRule&quot;:&quot;evenodd&quot;,&quot;fillRuleOriginal&quot;:&quot;evenodd&quot;,&quot;isIcon&quot;:true,&quot;iconStyle&quot;:&quot;icon-in-text&quot;,&quot;selectedEffects&quot;:{&quot;container&quot;:&quot;&quot;,&quot;transformation&quot;:&quot;&quot;,&quot;pattern&quot;:&quot;&quot;},&quot;bounds&quot;:{&quot;x&quot;:65,&quot;y&quot;:198.72537223629777,&quot;width&quot;:72.54691581403068,&quot;height&quot;:72.54925552740443},&quot;iconType&quot;:&quot;icon&quot;,&quot;rawIconId&quot;:&quot;38971&quot;,&quot;combineTerms&quot;:&quot;flower&quot;,&quot;isDetailed&quot;:true,&quot;suitableAsStandaloneIcon&quot;:true}" fill-rule="evenodd"><path d="M137.54692,229.72783l-6.04649,10.47341c-0.16523,0.28604 -0.34527,0.55882 -0.53076,0.82459l4.35599,7.54447l-10.47341,6.04649c-0.28682,0.16601 -0.57908,0.31176 -0.87525,0.44893v8.71355h-12.09297c-0.33202,0 -0.65858,-0.02026 -0.98203,-0.0491l-4.35677,7.54447l-10.47185,-6.04649c-0.28759,-0.16601 -0.56038,-0.34761 -0.82615,-0.53466l-7.54525,4.35677l-6.04649,-10.47341c-0.16523,-0.28759 -0.31176,-0.57986 -0.44815,-0.87525h-8.71199l0.00078,-12.09297c0,-0.33202 0.01948,-0.6578 0.0491,-0.98203l-7.54525,-4.35522l6.04649,-10.47418c0.16601,-0.28682 0.34605,-0.5596 0.53388,-0.82537l-4.35599,-7.54447l10.47341,-6.04649c0.28682,-0.16601 0.57986,-0.31253 0.87447,-0.44815v-8.71199h12.09297c0.33202,0 0.6578,0.01948 0.98125,0.0491l4.35599,-7.54447l10.47263,6.04726c0.28682,0.16601 0.56038,0.34605 0.82537,0.53388l7.54525,-4.35599l6.04649,10.47263c0.16601,0.28682 0.31253,0.57986 0.44737,0.87447h8.71199v12.09297c0,0.33124 -0.01948,0.6578 -0.0491,0.98125zM104.88981,206.6985l-7.98638,-4.61085l-2.73487,4.73633c1.88222,0.65624 3.52439,1.81909 4.75348,3.33266c0.06703,-0.04053 0.12782,-0.08651 0.19563,-0.12626zM111.89105,212.29762h6.66454l-4.61085,-7.98482l-4.73633,2.73409c1.30158,1.50967 2.14176,3.33733 2.44961,5.26242c0.07872,-0.00156 0.15354,-0.01169 0.23304,-0.01169zM109.22399,212.63431c-0.27045,-1.6071 -1.02412,-3.12456 -2.19242,-4.33028l-6.68402,3.85719c-0.03975,0.02338 -0.07482,0.05066 -0.11457,0.07404c0.66014,1.37172 1.04048,2.90088 1.04048,4.52045v6.08623c0,-4.99198 3.32876,-9.0596 7.95053,-10.20763zM90.25448,208.68204h-9.22093v5.46896c1.9586,-0.37177 3.96162,-0.18627 5.78227,0.50972c0.03741,-0.06858 0.06781,-0.13951 0.10677,-0.20732zM96.97436,211.6554c-1.03658,-1.25715 -2.44805,-2.19475 -4.06295,-2.65459l-3.85797,6.68324c-0.02338,0.03975 -0.04053,0.08184 -0.06313,0.12159c1.25793,0.85811 2.35141,1.99211 3.1612,3.39423l3.04039,5.26554c-2.49326,-4.3217 -1.64217,-9.50696 1.78246,-12.81001zM97.32586,223.23943l1.48707,2.57588h0.00078v-9.0596c0,-1.021 -0.2003,-1.99367 -0.55025,-2.89386c-2.26256,2.54158 -2.74033,6.25536 -0.9376,9.37759zM119.60776,214.75892h-7.71671c-0.04676,0 -0.09119,0.00624 -0.13795,0.00702c-0.11379,1.51825 -0.54947,3.0326 -1.35925,4.43471l-3.04117,5.26944c2.4956,-4.32326 7.41197,-6.17898 11.98775,-4.86494c0.57051,-1.52682 0.67573,-3.21809 0.26733,-4.84623zM127.59102,223.97907v-9.22015h-5.46974c0.37255,1.95782 0.18705,3.96084 -0.50816,5.78149c0.06858,0.03741 0.13873,0.06703 0.20732,0.10677zM103.73398,225.81609l4.5298,-7.84609c0.5105,-0.88382 0.82381,-1.82688 0.97112,-2.78085c-3.22978,1.06932 -5.50091,4.04658 -5.50091,7.65202zM85.47372,225.87766l5.26009,3.03649c-4.31547,-2.49872 -6.16807,-7.41041 -4.85558,-11.98152c-1.52604,-0.57051 -3.21731,-0.67573 -4.84545,-0.26733v7.71671c0,0.04599 0.00624,0.09041 0.00624,0.13717c1.51825,0.11379 3.0326,0.54869 4.43471,1.35847zM78.57225,224.38124v-6.66376l-7.98482,4.61007l2.73409,4.73633c1.50967,-1.30158 3.33733,-2.14254 5.26242,-2.45039c-0.00156,-0.07794 -0.01169,-0.15354 -0.01169,-0.23226zM94.55202,228.27661l-4.53058,-7.84609c-0.5105,-0.88382 -1.16986,-1.62658 -1.92275,-2.23061c-0.68742,3.33188 0.75523,6.7869 3.87745,8.58962zM107.99567,228.27739l7.84609,-4.53058c0.88382,-0.5105 1.62814,-1.16986 2.23139,-1.92275c-3.33188,-0.6882 -6.7869,0.75445 -8.59118,3.87745zM127.27148,226.63678l-6.68246,-3.85797c-0.04053,-0.02338 -0.08106,-0.04053 -0.12314,-0.06313c-0.85733,1.25793 -1.99134,2.35219 -3.39345,3.16197l-5.25853,3.03649c4.32014,-2.4878 9.50073,-1.63671 12.80377,1.78557c1.25559,-1.03658 2.1932,-2.44805 2.65381,-4.06295zM89.1158,232.53908h2.97492l-7.84609,-4.53058c-0.88382,-0.5105 -1.82688,-0.82381 -2.78085,-0.97034c1.0701,3.22978 4.04736,5.50091 7.65202,5.50091zM74.57789,229.24149l3.85797,6.68246c0.02338,0.04053 0.05066,0.0756 0.07404,0.11691c1.37172,-0.66092 2.90088,-1.04126 4.51967,-1.04126h6.07688c-4.9873,-0.00468 -9.05024,-3.33344 -10.19828,-7.94975c-1.60632,0.26967 -3.12456,1.02334 -4.33028,2.19164zM129.57534,238.61518l4.61085,-7.9856l-4.73711,-2.73409c-0.65624,1.88144 -1.81909,3.52361 -3.33188,4.7527c0.04053,0.06625 0.08729,0.12782 0.12704,0.19563zM113.03285,231.05201l-2.57588,1.48707v0.00078h9.0596c1.021,0 1.99445,-0.2003 2.89309,-0.55025c-2.5408,-2.26256 -6.2538,-2.74033 -9.37681,-0.9376zM72.97235,231.38247l-4.61007,7.9856l4.73633,2.73565c0.65702,-1.883 1.81987,-3.52439 3.33266,-4.7527c-0.04053,-0.06858 -0.08729,-0.12938 -0.12626,-0.19641zM119.51657,234.99961h-6.06753c4.98496,0.0078 9.04167,3.335 10.18971,7.94975c1.60788,-0.26967 3.12612,-1.02334 4.33106,-2.19086l-3.85875,-6.6848c-0.02338,-0.03975 -0.04988,-0.07482 -0.07404,-0.11457c-1.3725,0.66014 -2.90166,1.04048 -4.52045,1.04048zM92.0915,237.45935h-9.06037c-1.02022,0 -1.99367,0.19952 -2.89309,0.54947c2.5408,2.26178 6.25458,2.74188 9.37681,0.93916zM121.08392,242.96105c-1.06932,-3.23056 -4.04658,-5.50169 -7.6528,-5.50169h-2.97492l7.84531,4.53058c0.88382,0.50972 1.82766,0.82459 2.78241,0.97112zM75.27544,243.36165l6.68246,3.85875c0.03975,0.0226 0.08184,0.03897 0.12237,0.06313c0.85811,-1.25949 1.99211,-2.35219 3.39423,-3.16197l5.25775,-3.03571c-4.32014,2.48546 -9.50073,1.63515 -12.80144,-1.78713c-1.25793,1.03503 -2.19553,2.44805 -2.65537,4.06295zM117.07319,244.12077l-5.26897,-3.04047c4.3231,2.49505 6.17836,7.4133 4.86369,11.98627c1.52604,0.56973 3.21809,0.67573 4.84623,0.26655l0.00078,-7.71593c0,-0.04754 -0.00624,-0.09119 -0.00702,-0.13717c-1.51825,-0.11379 -3.0326,-0.54947 -4.43471,-1.35925zM94.55046,241.72182l-7.84531,4.53058c-0.88382,0.50972 -1.62658,1.16986 -2.23139,1.92431c3.33188,0.68586 6.7869,-0.75679 8.58962,-3.87745zM107.99567,241.72182l4.5298,7.84531c0.5105,0.8846 1.16986,1.62736 1.92431,2.23139c0.68742,-3.33188 -0.75367,-6.78612 -3.87667,-8.58962zM123.97545,245.6172v6.66454l7.9856,-4.61163l-2.73487,-4.73711c-1.50967,1.30314 -3.33733,2.14332 -5.26242,2.45117c0.00234,0.07794 0.01169,0.15354 0.01169,0.23304zM105.22183,246.759l-1.48785,-2.57743v9.06037c0,1.02022 0.2003,1.99289 0.55025,2.89386c2.261,-2.54158 2.74033,-6.25458 0.9376,-9.37681zM98.81371,244.18234l-4.53058,7.84531c-0.5105,0.88382 -0.82303,1.82766 -0.96956,2.78085c3.22978,-1.0701 5.50014,-4.0458 5.50014,-7.65046zM105.57334,258.34303c1.0358,1.25559 2.44727,2.19475 4.06139,2.65459l3.85953,-6.68324c0.0226,-0.04131 0.04053,-0.08184 0.06313,-0.12314c-1.25871,-0.85655 -2.35219,-1.99056 -3.16197,-3.39423l-3.03649,-5.25931c2.48858,4.3217 1.63671,9.50229 -1.78557,12.80533zM82.93838,255.23951h7.71671c0.04754,0 0.09197,-0.00624 0.13717,-0.00702c0.11379,-1.51747 0.54869,-3.03182 1.35847,-4.43549l3.03649,-5.25775c-2.49794,4.31625 -7.41041,6.16885 -11.98074,4.8548c-0.57051,1.52526 -0.67651,3.21809 -0.26811,4.84545zM74.95589,246.0178v9.22171h5.46974c-0.37255,-1.95938 -0.18627,-3.9624 0.50972,-5.78305c-0.06858,-0.03819 -0.13951,-0.06703 -0.20732,-0.10677zM93.32449,257.36412c0.26889,1.60788 1.02256,3.12534 2.19086,4.33106l6.68402,-3.85875c0.03897,-0.02338 0.0756,-0.05066 0.11535,-0.07482c-0.66092,-1.37172 -1.04126,-2.9001 -1.04126,-4.51967v-6.07532c-0.0039,4.98886 -3.33266,9.05024 -7.94897,10.1975zM112.29321,261.31639h9.22093v-5.46974c-1.95782,0.37333 -3.96162,0.18783 -5.78227,-0.50816c-0.03819,0.06858 -0.06703,0.13873 -0.10677,0.20732zM90.65665,257.70082h-6.66532l4.61085,7.9856l4.73633,-2.73409c-1.30158,-1.51045 -2.14254,-3.33811 -2.45039,-5.26398c-0.07716,0.00312 -0.15276,0.01247 -0.23148,0.01247zM97.6571,263.30149l7.9856,4.61085l2.73565,-4.73711c-1.883,-0.65702 -3.52439,-1.82065 -4.75348,-3.33188c-0.06703,0.03975 -0.12782,0.08495 -0.19563,0.1247z" data-paper-data="{&quot;isPathIcon&quot;:true}"></path></g></g></g></g></svg>